<svg width="1920" height="1080" viewBox="0 0 1920 1080" xmlns="http://www.w3.org/2000/svg"><rect width="1920" height="1080" fill="#041c32"/><path d="M 0,1080 C 0,1080 0,154 0,154 C 108.40000000000003,154.4 216.80000000000007,154.8 530,142 C 843.1999999999999,129.2 1361.2,103.2 1627,103 C 1892.8,102.8 1906.4,128.4 1920,154 C 1920,154 1920,1080 1920,1080 Z" fill="#5c0e81" opacity="0.08571428571428572"/><path d="M 0,1080 C 0,1080 0,308 0,308 C 74.13333333333333,310.4 148.26666666666665,312.8 449,308 C 749.7333333333333,303.2 1277.0666666666666,291.2 1560,290 C 1842.9333333333334,288.8 1881.4666666666667,298.4 1920,308 C 1920,308 1920,1080 1920,1080 Z" fill="#5c0e81" opacity="0.17142857142857143"/><path d="M 0,1080 C 0,1080 0,462 0,462 C 191.0666666666666,463.06666666666666 382.1333333333332,464.1333333333333 542,459 C 701.8666666666668,453.8666666666667 830.5333333333335,442.53333333333336 1055,442 C 1279.4666666666665,441.46666666666664 1599.7333333333331,451.73333333333335 1920,462 C 1920,462 1920,1080 1920,1080 Z" fill="#5c0e81" opacity="0.2571428571428571"/><path d="M 0,1080 C 0,1080 0,617 0,617 C 77.33333333333331,600.3333333333333 154.66666666666663,583.6666666666666 393,598 C 631.3333333333334,612.3333333333334 1030.6666666666667,657.6666666666667 1312,666 C 1593.3333333333333,674.3333333333333 1756.6666666666665,645.6666666666666 1920,617 C 1920,617 1920,1080 1920,1080 Z" fill="#5c0e81" opacity="0.34285714285714286"/><path d="M 0,1080 C 0,1080 0,771 0,771 C 369.6,774.0666666666666 739.2,777.1333333333333 989,771 C 1238.8,764.8666666666667 1368.8,749.5333333333333 1504,748 C 1639.2,746.4666666666667 1779.6,758.7333333333333 1920,771 C 1920,771 1920,1080 1920,1080 Z" fill="#5c0e81" opacity="0.4285714285714286"/><path d="M 0,1080 C 0,1080 0,925 0,925 C 513.4666666666666,920.8666666666667 1026.9333333333332,916.7333333333333 1176,915 C 1325.0666666666668,913.2666666666667 1109.7333333333333,913.9333333333333 1173,916 C 1236.2666666666667,918.0666666666667 1578.1333333333332,921.5333333333333 1920,925 C 1920,925 1920,1080 1920,1080 Z" fill="#5c0e81" opacity="0.5142857142857142"/><path d="M 0,1080 C 0,1080 0,1079 0,1079 C 264,1073.4 528,1067.8 728,1073 C 928,1078.2 1064,1094.2 1252,1097 C 1440,1099.8 1680,1089.4 1920,1079 C 1920,1079 1920,1080 1920,1080 Z" fill="#5c0e81" opacity="0.6"/></svg>